<svg xmlns="http://www.w3.org/2000/svg" width="1176.498" height="969.981" viewBox="0 0 1176.498 969.981"><defs><style>.a,.c,.e,.f{fill:#020202;}.a{stroke:#020202;stroke-width:6px;}.b{fill:#ffd400;}.d{fill:#fcfcfc;}.e{font-size:25px;}.e,.f{font-family:Montserrat;font-weight:800;}.f{font-size:24px;}.g,.i{stroke:none;}.h{fill:none;}.i{fill:#020202;}</style></defs><g transform="translate(-706.36 -66.997)"><g class="a" transform="translate(1019.763 97.851)"><rect class="g" width="601.21" height="370.406"/><rect class="h" x="3" y="3" width="595.21" height="364.406"/></g><g class="b" transform="translate(977.546 88.499) rotate(-2)"><path class="g" d="M 2.631023645401001 357.2213439941406 L 4.240620613098145 3.798916578292847 L 594.3308715820312 2.35277533531189 L 592.7210693359375 355.7753601074219 L 2.631023645401001 357.2213439941406 Z"/><path class="i" d="M 591.3171997070312 5.360198974609375 L 7.2269287109375 6.7916259765625 L 5.6446533203125 354.2139282226562 L 589.7347412109375 352.7826538085938 L 591.3171997070312 5.360198974609375 M 597.3446044921875 -0.65460205078125 L 595.70751953125 358.76806640625 L -0.3828125 360.2287292480469 L 1.254150390625 0.806243896484375 L 597.3446044921875 -0.65460205078125 Z"/></g><g class="c" transform="translate(1276.174 433.643)"><path class="g" d="M 3.02336049079895 431.7620544433594 L 6.15325403213501 17.33423614501953 L 572.9326782226562 3.077043533325195 L 569.8027954101562 417.5047912597656 L 3.02336049079895 431.7620544433594 Z"/><path class="i" d="M 569.9093627929688 6.15399169921875 L 9.1312255859375 20.26022338867188 L 6.04669189453125 428.6851196289062 L 566.82470703125 414.5788269042969 L 569.9093627929688 6.15399169921875 M 575.9560546875 3.0517578125e-05 L 572.7807006835938 420.4308776855469 L 0 434.8390808105469 L 3.17523193359375 14.40817260742188 L 575.9560546875 3.0517578125e-05 Z"/></g><g class="d" transform="matrix(1, 0.017, -0.017, 1, 1300.92, 409.122)"><path class="g" d="M 579.0025024414062 412.8042907714844 L 6.052913188934326 400.5070190429688 L 3.023510694503784 3.065596342086792 L 575.9730834960938 15.36294555664062 L 579.0025024414062 412.8042907714844 Z"/><path class="i" d="M 6.046875 6.13116455078125 L 9.0306396484375 397.5702209472656 L 575.9789428710938 409.7387084960938 L 572.995361328125 18.29971313476562 L 6.046875 6.13116455078125 M 0 0 L 578.9508056640625 12.42617797851562 L 582.02587890625 415.869873046875 L 3.0751953125 403.4437866210938 L 0 0 Z"/></g><g transform="translate(1171.25 -109.001) rotate(2)"><text class="e" transform="translate(200.798 572.783)" font-family="'Montserrat', sans-serif"><tspan x="0" y="0">A freelance UI designer with </tspan><tspan x="0" y="51">2 years of experience in the field.</tspan><tspan x="0" y="102">I specialize in creating visually</tspan><tspan x="0" y="153">appealing and user-friendly </tspan><tspan x="0" y="204">interfaces for digital products using</tspan><tspan x="0" y="255">Adobe Creative Suite like Photoshop,</tspan><tspan x="0" y="306">Illustrator, XD and Figma.</tspan></text></g><g class="c" transform="translate(706.502 636.743) rotate(-1)"><path class="g" d="M 2.862436532974243 397.2928466796875 L 2.998974084854126 2.998922824859619 L 582.656982421875 2.796175241470337 L 582.5204467773438 397.090087890625 L 2.862436532974243 397.2928466796875 Z"/><path class="i" d="M 579.6559448242188 5.797210693359375 L 5.9979248046875 5.99786376953125 L 5.86346435546875 394.2918090820312 L 579.521484375 394.0911560058594 L 579.6559448242188 5.797210693359375 M 585.6580200195312 -0.204864501953125 L 585.5194091796875 400.0890502929688 L -0.13861083984375 400.2938842773438 L 0 -3.0517578125e-05 L 585.6580200195312 -0.204864501953125 Z"/></g><g class="b" transform="matrix(0.999, 0.035, -0.035, 0.999, 745.583, 586.766)"><path class="g" d="M 585.7085571289062 402.9328918457031 L 6.050549030303955 402.7301330566406 L 5.914011001586914 8.436220169067383 L 585.5719604492188 8.638968467712402 L 585.7085571289062 402.9328918457031 Z"/><path class="i" d="M 8.9150390625 11.437255859375 L 9.04949951171875 399.731201171875 L 582.70751953125 399.9317626953125 L 582.572998046875 11.63790893554688 L 8.9150390625 11.437255859375 M 2.9129638671875 5.4351806640625 L 588.5709228515625 5.6400146484375 L 588.7095947265625 405.9338684082031 L 3.05157470703125 405.7290954589844 L 2.9129638671875 5.4351806640625 Z"/></g><g transform="translate(620.434 103.186) rotate(2)"><text class="f" transform="translate(199.96 546.798)" font-family="'Montserrat', sans-serif" font-weight="800"><tspan x="0" y="0">I am familiar in HTML5, CSS3, and </tspan><tspan x="0" y="49">JavaScript with a strong knowledge </tspan><tspan x="0" y="98">of responsive web design and mobile </tspan><tspan x="0" y="147">optimization. My experience includes</tspan><tspan x="0" y="196">SEO best practices and front-end </tspan><tspan x="0" y="245">frameworks like Bootstrap and </tspan><tspan x="0" y="294">Materialize.</tspan></text></g><g transform="translate(721.023 -977.118) rotate(-2)"><text class="e" transform="translate(281.473 1127.937)" font-family="'Montserrat', sans-serif" font-weight="800"><tspan x="0" y="0">An Android developer at Wayfair</tspan><tspan x="0" y="51">with 5 years of experience.</tspan><tspan x="0" y="102">I am proficient in Kotlin and </tspan><tspan x="0" y="153">have worked with various tools</tspan><tspan x="0" y="204">and frameworks such as Android </tspan><tspan x="0" y="255">Studio, Gradle, and the Android SDK.</tspan></text></g></g></svg>
