<svg xmlns="http://www.w3.org/2000/svg" xmlns:xlink="http://www.w3.org/1999/xlink" width="1649.124" height="576.877" viewBox="0 0 1649.124 576.877"><defs><style>.a{isolation:isolate;}.b{fill:rgba(255,255,255,0.19);}.c{fill:#020202;stroke:#020202;font-size:68px;font-family:ZenDots-Regular, Zen Dots;}.d{filter:url(#a);}</style><filter id="a" x="0" y="0" width="1649.124" height="576.877" filterUnits="userSpaceOnUse"><feOffset dx="30" dy="20" input="SourceAlpha"/><feGaussianBlur stdDeviation="7.5" result="b"/><feFlood/><feComposite operator="in" in2="b"/><feComposite in="SourceGraphic"/></filter></defs><g class="a" transform="matrix(1, 0.017, -0.017, 1, -189.239, -508.391)"><g class="d" transform="matrix(1, -0.02, 0.02, 1, 198.08, 505.01)"><path class="b" d="M43.566-.056,1552.748.692c24.1.012,43.643,20.546,43.653,45.863L1596.572,486c.01,25.318-19.519,45.832-43.618,45.82L43.772,531.073C19.673,531.061.129,510.527.119,485.21L-.052,45.764C-.062,20.446,19.467-.068,43.566-.056Z" transform="translate(0.05 2.56)"/></g><text class="c" transform="matrix(1, -0.017, 0.017, 1, 334.347, 618.49)"><tspan x="0" y="0">I create striking and memorable </tspan><tspan x="0" y="72">visual identities. Whether it’s </tspan><tspan x="0" y="144">designing a new logo or creating </tspan><tspan x="0" y="216">a custom font, I’m passionate </tspan><tspan x="0" y="288">about delivering exceptional </tspan><tspan x="0" y="360">quality and value to my clients.</tspan></text></g></svg>