<svg xmlns="http://www.w3.org/2000/svg" width="574.959" height="511.816" viewBox="0 0 574.959 511.816">
  <defs>
    <style>.a,.c{fill:#020202;}.b{fill:#ffd400;}.c{font-size:25px;font-family:Montserrat, sans-serif;font-weight:800;}.d,.e{stroke:none;}.e{fill:#020202;}</style>
  </defs>
  <g transform="translate(-85.809 -71.464)">
    <g class="a" transform="translate(652.494 583.28) rotate(-179)">
      <path class="d" d="M 514.1053466796875 471.0860595703125 L 6.745547771453857 468.2434692382812 L 3.024276971817017 3.017004013061523 L 510.3838806152344 5.859716892242432 L 514.1053466796875 471.0860595703125 Z"/>
      <path class="e" d="M 6.04840087890625 6.03399658203125 L 9.7216796875 465.260009765625 L 511.0811767578125 468.0690002441406 L 507.4077453613281 8.843109130859375 L 6.04840087890625 6.03399658203125 M -6.103515625e-05 0 L 513.3601684570312 2.8763427734375 L 517.1295776367188 474.1029968261719 L 3.76922607421875 471.2267761230469 L -6.103515625e-05 0 Z"/>
    </g>
    <g class="b" transform="matrix(-1, 0.017, -0.017, -1, 640.146, 556.742)">
      <path class="d" d="M 542.91650390625 482.2980041503906 L 7.977654933929443 472.8226623535156 L 3.032338619232178 3.054167509078979 L 537.9712524414062 12.52943515777588 L 542.91650390625 482.2980041503906 Z"/>
      <path class="e" d="M 539.8842163085938 479.2437744140625 L 535.0021362304688 15.47739887237549 L 6.064702033996582 6.108390808105469 L 10.94679546356201 469.8747863769531 L 539.8842163085938 479.2437744140625 M 545.9489135742188 485.3521728515625 L 5.008502960205078 475.7705383300781 L 4.165414793533273e-05 9.502704415353946e-06 L 540.9404296875 9.581624984741211 L 545.9489135742188 485.3521728515625 Z"/>
    </g>
    <g transform="translate(159.98 66.128)">
      <text class="c" transform="translate(-0.507 88.516)" font-family="Montserrat, sans-serif" font-weight="800">
        <tspan x="0" y="0">Through visual storytelling, </tspan>
        <tspan x="0" y="51">I create eye-catching and</tspan>
        <tspan x="0" y="102">effective designs for a variety </tspan>
        <tspan x="0" y="153">of clients and purposes.</tspan>
        <tspan x="0" y="204">I have experience working with </tspan>
        <tspan x="0" y="255">various design tools, such as </tspan>
        <tspan x="0" y="306">Illustrator, Photoshop, and </tspan>
        <tspan x="0" y="357">Indesign</tspan>
      </text>
    </g>
  </g>
</svg>