<svg xmlns="http://www.w3.org/2000/svg" width="833.042" height="654.376" viewBox="0 0 833.042 654.376"><defs><style>.a,.c{fill:#020202;}.b{fill:#ffd400;}.c{font-size:34px;font-family:Montserrat;font-weight:800;}.d,.e{stroke:none;}.e{fill:#020202;}</style></defs><g transform="translate(-1219.99 -436.255)"><g transform="translate(1219.99 435.996)"><g transform="translate(0 0)"><g class="a" transform="matrix(1, 0.017, -0.017, 1, 65.219, 38.253)"><path class="d" d="M 2.785152912139893 600.0650634765625 L 4.121099472045898 4.241403102874756 L 764.9280395507812 2.729625463485718 L 763.5921020507812 598.5532836914062 L 2.785152912139893 600.0650634765625 Z"/><path class="e" d="M 761.9212646484375 5.735595703125 L 7.1143798828125 7.2354736328125 L 5.79193115234375 597.05908203125 L 760.5988159179688 595.5592041015625 L 761.9212646484375 5.735595703125 M 767.934814453125 -0.2763671875 L 766.5853881835938 601.54736328125 L -0.22161865234375 603.071044921875 L 1.1278076171875 1.247314453125 L 767.934814453125 -0.2763671875 Z"/></g><g class="b" transform="translate(11.07 0.539) rotate(1)"><path class="d" d="M 2.841042041778564 618.6968994140625 L 14.54380512237549 18.39414978027344 L 796.715087890625 2.785253763198853 L 785.01220703125 603.088134765625 L 2.841042041778564 618.6968994140625 Z"/><path class="e" d="M 793.6547241210938 5.84686279296875 L 17.48712158203125 21.33599853515625 L 5.90130615234375 615.6353149414062 L 782.0689697265625 600.1463012695312 L 793.6547241210938 5.84686279296875 M 799.7752075195312 -0.2764892578125 L 787.9554443359375 606.0299682617188 L -0.21917724609375 621.7586669921875 L 11.6007080078125 15.45233154296875 L 799.7752075195312 -0.2764892578125 Z"/></g></g><g transform="matrix(1, -0.017, 0.017, 1, 66.547, 77.494)"><text class="c" transform="matrix(1, 0.026, -0.026, 1, 22.323, 40.563)"><tspan x="0" y="0" xml:space="preserve"> I specialize in creating beautiful </tspan><tspan x="0" y="70">and functional digital experiences </tspan><tspan x="0" y="140">that are user-friendly and intuitive </tspan><tspan x="0" y="210">using various design tools, such as </tspan><tspan x="0" y="280">XD, and Figma, and I am well-versed</tspan><tspan x="0" y="350">in creating wireframes, prototypes, </tspan><tspan x="0" y="420">and high-fidelity mockups.</tspan></text></g></g></g></svg>